<?xml version="1.0" standalone="no"?>
<!DOCTYPE svg PUBLIC "-//W3C//DTD SVG 20010904//EN"
 "http://www.w3.org/TR/2001/REC-SVG-20010904/DTD/svg10.dtd">
<svg version="1.0" xmlns="http://www.w3.org/2000/svg"
 width="100.000000pt" height="100.000000pt" viewBox="0 0 100.000000 100.000000"
 preserveAspectRatio="xMidYMid meet">
<metadata>
Created by potrace 1.11, written by Peter Selinger 2001-2013
</metadata>
<g transform="translate(0.000000,100.000000) scale(0.100000,-0.100000)"
fill="#000000" stroke="none">
<path d="M0 500 l0 -430 500 0 500 0 0 430 0 430 -58 0 -58 0 0 -309 0 -308
-24 -37 c-44 -63 -61 -66 -420 -66 -249 0 -320 3 -321 13 0 6 -1 168 -1 360
l-1 347 -58 0 -59 0 0 -430z"/>
<path d="M279 923 c-4 -40 -3 -626 1 -632 3 -4 99 -8 213 -8 246 0 247 0 248
87 1 30 1 66 0 79 l-1 23 -19 -23 c-16 -20 -28 -23 -87 -24 -38 -1 -88 5 -112
13 -74 24 -77 36 -78 277 l-1 210 -82 3 c-44 2 -81 -1 -82 -5z"/>
<path d="M586 923 c-4 -4 -6 -93 -6 -199 1 -175 3 -194 21 -210 25 -23 93 -22
119 1 19 17 20 31 20 217 l0 198 -73 0 c-41 0 -77 -3 -81 -7z"/>
</g>
</svg>
